<?xml version="1.0" encoding="UTF-8" standalone="no"?>
<svg
   xmlns:dc="http://purl.org/dc/elements/1.1/"
   xmlns:cc="http://creativecommons.org/ns#"
   xmlns:rdf="http://www.w3.org/1999/02/22-rdf-syntax-ns#"
   xmlns:svg="http://www.w3.org/2000/svg"
   xmlns="http://www.w3.org/2000/svg"
   xmlns:sodipodi="http://sodipodi.sourceforge.net/DTD/sodipodi-0.dtd"
   xmlns:inkscape="http://www.inkscape.org/namespaces/inkscape"
   width="512"
   height="512"
   viewBox="0 0 135.46667 135.46667"
   version="1.1"
   id="svg864"
   inkscape:version="1.0.2 (e86c870879, 2021-01-15, custom)"
   sodipodi:docname="OriginalLogoSquare.svg">
  <defs
     id="defs858" />
  <sodipodi:namedview
     id="base"
     pagecolor="#ffffff"
     bordercolor="#666666"
     borderopacity="1.0"
     inkscape:pageopacity="0.0"
     inkscape:pageshadow="2"
     inkscape:zoom="0.98994949"
     inkscape:cx="273.26361"
     inkscape:cy="336.50943"
     inkscape:document-units="mm"
     inkscape:current-layer="layer1"
     inkscape:document-rotation="0"
     showgrid="false"
     units="px"
     width="512px"
     showguides="true"
     inkscape:window-width="1920"
     inkscape:window-height="1018"
     inkscape:window-x="-6"
     inkscape:window-y="-6"
     inkscape:window-maximized="1" />
  <metadata
     id="metadata861">
    <rdf:RDF>
      <cc:Work
         rdf:about="">
        <dc:format>image/svg+xml</dc:format>
        <dc:type
           rdf:resource="http://purl.org/dc/dcmitype/StillImage" />
        <dc:title></dc:title>
      </cc:Work>
    </rdf:RDF>
  </metadata>
  <g
     inkscape:label="Слой 1"
     inkscape:groupmode="layer"
     id="layer1">
    <rect
       width="135"
       height="135"
       fill="#f54f29"
       id="rect2"
       x="0"
       y="0"
       style="stroke-width:0.120793" />
    <g
       transform="matrix(0.37711286,0,0,0.37711286,7.917516,54.672301)"
       id="g25">
      <defs
         id="SvgjsDefs8607" />
      <g
         id="SvgjsG8608"
         rel="mainfill"
         name="main_text"
         transform="translate(90.76,-170.795)"
         fill="#ffffff"
         style="fill:#ffffff">
        <path
           d="m 6.98,171.79 6.47,52.54 6.39,-52.54 h 6.47 L 16.69,240 H 10.13 L 0.68,171.79 Z m 27.93,0 V 240 h -6.3 v -68.21 z m 9.79,30.66 h 6.48 V 178.27 H 44.7 v 24.18 m 6.48,-30.66 q 2.29,0 4.34,2.13 2.04,2.13 2.04,4.35 V 240 H 51.18 V 208.75 H 44.7 V 240 h -6.3 v -61.73 q 0,-2.22 2.05,-4.35 2.04,-2.13 4.25,-2.13 z m 9.79,61.91 h 6.3 v 6.3 h -6.3 z m 16.18,0 h 6.47 v -55.43 h -6.47 v 55.43 m -6.31,-61.91 h 12.78 q 2.3,0 4.34,2.13 2.04,2.13 2.04,4.35 v 55.43 q 0,6.3 -6.21,6.3 H 70.84 Z M 93.32,240 v -68.21 h 16.95 v 6.48 H 99.63 v 24.18 h 9.36 v 6.3 h -9.36 v 24.95 h 10.64 v 6.3 z m 25.55,-68.21 v 61.91 h 9.37 v 6.3 h -15.67 v -68.21 z m 17.46,0 V 240 h -6.31 v -68.21 z m 8.77,0 6.47,52.54 6.38,-52.54 h 6.47 L 154.8,240 h -6.55 l -9.46,-68.21 z M 166.72,240 v -68.21 h 16.95 v 6.48 h -10.65 v 24.18 h 9.37 v 6.3 h -9.37 v 24.95 h 10.65 v 6.3 z m 25.55,-37.55 h 6.47 v -24.18 h -6.47 v 24.18 m 6.47,37.55 v -31.25 h -6.47 V 240 h -6.3 v -68.21 h 12.77 q 2.3,0 4.34,2.13 2.05,2.13 2.05,4.35 v 24.18 q 0,0.94 -0.86,1.96 -0.85,1.02 -2.04,1.53 1.36,0.51 2.13,1.36 0.77,0.85 0.77,2.3 V 240 Z m 14.9,-68.21 6.47,27.17 6.39,-27.17 h 6.47 l -9.62,37.13 V 240 h -6.56 v -31.08 l -9.45,-37.13 z"
           fill="#ffffff"
           style="fill:#ffffff"
           id="path5" />
      </g>
      <g
         id="SvgjsG8609"
         rel="mainfill"
         name="symbol"
         transform="matrix(0.78,0,0,0.78,0.33050676,-4.2305082)"
         fill="#ffffff"
         style="fill:#ffffff">
        <rect
           width="8"
           height="90"
           x="-0.42372662"
           y="5.4237285"
           fill=""
           id="rect8" />
        <rect
           width="8"
           height="90"
           x="13.576273"
           y="5.4237285"
           fill=""
           id="rect10" />
        <rect
           width="8"
           height="90"
           x="24.576273"
           y="5.4237285"
           fill=""
           id="rect12" />
        <rect
           width="4"
           height="90"
           x="38.576271"
           y="5.4237285"
           fill=""
           id="rect14" />
        <rect
           width="4"
           height="90"
           x="48.576271"
           y="5.4237285"
           fill=""
           id="rect16" />
        <rect
           width="11"
           height="90"
           x="58.576279"
           y="5.4237285"
           fill=""
           id="rect18" />
        <rect
           width="10"
           height="90"
           x="78.576271"
           y="5.4237285"
           fill=""
           id="rect20" />
        <rect
           width="4"
           height="90"
           x="93.576271"
           y="5.4237285"
           fill=""
           id="rect22" />
      </g>
    </g>
    <rect
       style="fill:#000000;fill-opacity:0;stroke-width:0.264583"
       id="rect1501"
       width="32.874149"
       height="23.519718"
       x="102.6315"
       y="-0.26726952" />
    <rect
       style="fill:#000000;fill-opacity:0;stroke-width:0.264583"
       id="rect1503"
       width="94.078873"
       height="35.279579"
       x="14.432552"
       y="-6.9490075" />
  </g>
</svg>
